<?xml version="1.0" encoding="utf-8"?>
<!-- Generator: Adobe Illustrator 26.0.1, SVG Export Plug-In . SVG Version: 6.00 Build 0)  -->
<svg version="1.1" xmlns="http://www.w3.org/2000/svg" xmlns:xlink="http://www.w3.org/1999/xlink" x="0px" y="0px"
	 viewBox="0 0 280.6 292.83" style="enable-background:new 0 0 280.6 292.83;" xml:space="preserve">
<style type="text/css">
	.st0{display:none;}
	.st1{display:inline;fill:#FFFFFF;}
	.st2{display:inline;fill:none;}
	.st3{display:inline;}
	.st4{fill:none;stroke:#FFFFFF;stroke-width:28.3465;stroke-miterlimit:10;}
	.st5{fill:#FFFFFF;}
	.st6{font-family:'Poppins';}
	.st7{font-size:74.1312px;}
</style>
<g id="Rough" class="st0">
	<path class="st1" d="M-362.8-729.37c-6.12,6.12-6.12,16.05,0,22.17l36.42,36.42c-11.8,7.68-25.88,12.14-41.01,12.14
		c-41.59,0-75.32-33.72-75.32-75.32c0-41.59,33.73-75.31,75.32-75.31c41.6,0,75.32,33.72,75.32,75.31
		c0,15.13-4.46,29.21-12.14,41.01l-36.42-36.42c-3.06-3.06-7.07-4.59-11.09-4.59C-355.73-733.96-359.74-732.43-362.8-729.37z"/>
	<path class="st2" d="M-304.21-692.95c-5.75,8.85-13.32,16.42-22.17,22.17l-36.42-36.42c-6.12-6.12-6.12-16.05,0-22.17
		c3.06-3.06,7.07-4.59,11.08-4.59c4.02,0,8.03,1.53,11.09,4.59L-304.21-692.95z"/>
	<path class="st1" d="M-293.01-659.58c-6.12,6.12-16.05,6.12-22.17,0l-11.2-11.2c8.85-5.75,16.42-13.32,22.17-22.17l11.2,11.2
		C-286.89-675.63-286.89-665.7-293.01-659.58z"/>
	<g class="st3">
		<circle class="st4" cx="-101.82" cy="-459.75" r="67.23"/>
		<path class="st5" d="M-27.44-385.37c-6.12,6.12-16.05,6.12-22.17,0l-11.2-11.2l-36.42-36.42c-6.12-6.12-6.12-16.05,0-22.17
			c3.06-3.06,7.07-4.59,11.08-4.59c4.02,0,8.03,1.53,11.09,4.59l47.62,47.62C-21.32-401.42-21.32-391.49-27.44-385.37z"/>
	</g>
	<text transform="matrix(1 0 0 1 -225.1661 -294.1294)" class="st1 st6 st7">Quizzy</text>
	<g class="st3">
		<g>
			<circle class="st4" cx="-282.9" cy="94.45" r="67.23"/>
			<path class="st5" d="M-208.52,168.83c-6.12,6.12-16.05,6.12-22.17,0l-11.2-11.2l-36.42-36.42c-6.12-6.12-6.12-16.05,0-22.17
				c3.06-3.06,7.07-4.59,11.08-4.59c4.02,0,8.03,1.53,11.09,4.59l47.62,47.62C-202.4,152.78-202.4,162.71-208.52,168.83z"/>
		</g>
		<text transform="matrix(1 0 0 1 -406.2452 260.0716)" class="st5 st6 st7">Quizzy</text>
	</g>
	<path class="st1" d="M115.9-322.41c-8.65,0.11-15.76-6.82-15.88-15.48l-0.2-15.84l-0.66-51.5c-0.11-8.65,6.82-15.76,15.48-15.88
		c4.33-0.06,8.27,1.65,11.14,4.45c2.88,2.81,4.68,6.7,4.74,11.03l0.86,67.34C131.48-329.63,124.55-322.52,115.9-322.41z"/>
	<path class="st1" d="M107.32-397.6l-22.78,22.78l-58.4-58.4c-6.29-6.29-6.29-16.49,0-22.78l0,0c6.29-6.29,16.49-6.29,22.78,0
		L107.32-397.6z"/>
	<g class="st3">
		<g>
			<g>
				<circle class="st4" cx="124.41" cy="94.45" r="67.23"/>
			</g>
			<path class="st5" d="M221.2,167.54L221.2,167.54c-12.58,12.58-32.98,12.58-45.55,0l-46.53-46.53c-6.29-6.29-6.29-16.49,0-22.78
				l0,0c6.29-6.29,16.49-6.29,22.78,0L221.2,167.54z"/>
		</g>
		<text transform="matrix(1 0 0 1 9.9794 260.0716)" class="st5 st6 st7">Quizzy</text>
	</g>
	<g class="st3">
		<g>
			<g>
				<circle class="st4" cx="552.89" cy="92.02" r="67.23"/>
			</g>
			<path class="st5" d="M615.74,177.65L615.74,177.65l-58.13-58.13c-6.29-6.29-6.29-16.49,0-22.78v0c6.29-6.29,16.49-6.29,22.78,0
				l35.35,35.35C628.32,144.67,628.32,165.07,615.74,177.65z"/>
		</g>
		<text transform="matrix(1 0 0 1 426.2035 260.0716)" class="st5 st6 st7">Quizzy</text>
	</g>
	<g class="st3">
		<g>
			<g>
				<circle class="st4" cx="962.2" cy="85.09" r="67.23"/>
			</g>
			<path class="st5" d="M1048.31,148.27l-22.78,22.78l-58.74-58.74c-6.29-6.29-6.29-16.49,0-22.78v0c6.29-6.29,16.49-6.29,22.78,0
				L1048.31,148.27z"/>
		</g>
		<text transform="matrix(1 0 0 1 842.4281 260.0716)" class="st5 st6 st7">Quizzy</text>
	</g>
</g>
<g id="Final">
	<g>
		<g>
			<g>
				<path class="st5" d="M192.57,138.91c8.38-12.79,13.25-28.07,13.25-44.46c0-44.89-36.52-81.41-81.41-81.41S43,49.56,43,94.45
					c0,44.88,36.52,81.4,81.41,81.4c16.87,0,32.56-5.16,45.57-13.98l5.67,5.67c12.58,12.58,32.98,12.58,45.56,0L192.57,138.91z
					 M151.9,98.24c-3.14-3.15-7.26-4.72-11.38-4.72s-8.24,1.57-11.39,4.72c-6.29,6.29-6.29,16.48,0,22.77l20.25,20.25
					c-7.44,3.99-15.95,6.25-24.97,6.25c-29.26,0-53.06-23.81-53.06-53.06c0-29.26,23.8-53.06,53.06-53.06s53.06,23.8,53.06,53.06
					c0,8.53-2.02,16.59-5.62,23.74L151.9,98.24z"/>
			</g>
		</g>
		<g>
			<path class="st5" d="M39.19,260.59c-7.46,0-13.78-2.52-18.94-7.56c-5.16-5.04-7.75-11.42-7.75-19.13
				c0-7.71,2.58-14.07,7.75-19.09c5.16-5.02,11.49-7.52,18.98-7.52s13.79,2.51,18.9,7.52c5.11,5.02,7.67,11.38,7.67,19.09
				c0,4.35-0.88,8.34-2.63,11.97c-1.75,3.63-4.16,6.66-7.23,9.08l10.6,13.64H51.2l-6.3-8.6C42.92,260.39,41.02,260.59,39.19,260.59z
				 M29.14,223.01c-2.5,2.72-3.74,6.35-3.74,10.9s1.25,8.18,3.74,10.9c2.49,2.72,5.83,4.08,10.01,4.08c4.18,0,7.51-1.36,10.01-4.08
				c2.5-2.72,3.74-6.35,3.74-10.9s-1.25-8.18-3.74-10.9c-2.5-2.72-5.83-4.08-10.01-4.08C34.97,218.93,31.64,220.29,29.14,223.01z"/>
			<path class="st5" d="M102.49,218.71h12.68v41.37h-12.68v-6.08c-2.62,4.35-6.8,6.52-12.53,6.52c-4.74,0-8.59-1.58-11.53-4.74
				c-2.94-3.16-4.41-7.46-4.41-12.9v-24.17h12.6v22.46c0,2.67,0.7,4.73,2.11,6.19c1.41,1.46,3.35,2.19,5.82,2.19
				c2.47,0,4.41-0.73,5.82-2.19c1.41-1.46,2.11-3.52,2.11-6.19V218.71z"/>
			<path class="st5" d="M137.85,214.04c-1.43,1.43-3.19,2.15-5.26,2.15s-3.83-0.72-5.26-2.15c-1.43-1.43-2.15-3.2-2.15-5.3
				c0-2.1,0.72-3.87,2.15-5.3c1.43-1.43,3.19-2.15,5.26-2.15s3.83,0.72,5.26,2.15c1.43,1.43,2.15,3.2,2.15,5.3
				C140,210.84,139.29,212.6,137.85,214.04z M126.29,260.07v-41.37h12.68v41.37H126.29z"/>
			<path class="st5" d="M179,218.71v10.45l-15.86,20.46H179v10.45h-30.76v-10.45l15.86-20.46h-15.86v-10.45H179z"/>
			<path class="st5" d="M217.18,218.71v10.45l-15.86,20.46h15.86v10.45h-30.76v-10.45l15.86-20.46h-15.86v-10.45H217.18z"/>
			<path class="st5" d="M237.26,259.26l-16.09-40.55h14.38l9.19,27.06l10.08-27.06h13.27l-26.39,61.08h-13.27L237.26,259.26z"/>
		</g>
	</g>
</g>
</svg>
